<?xml version="1.0" encoding="UTF-8"?>
    <svg width="800" height="3150" version="1.1" xmlns="http://www.w3.org/2000/svg">
    <style>
        .row { font: 14px Arial; fill: #64748b; }
        .score { font: bold 14px Arial; fill: #64748b; }
    </style>
    <text x="400" y="40" text-anchor="middle" font-size="20px" font-weight="bold" fill="#64748b">Channel Performance Overview</text><rect x="150" y="80" width="500" height="30" fill="#eee" rx="5"/><rect x="150" y="80" width="461.5" height="30" fill="#22c55e" rx="5"/>
        <text x="140" y="100" text-anchor="end" class="row">SOSkeyNET</text>
        <text x="660" y="100" text-anchor="start" class="score">92.3% (S:100%)</text><rect x="150" y="130" width="500" height="30" fill="#eee" rx="5"/><rect x="150" y="130" width="328.75" height="30" fill="#eab308" rx="5"/>
        <text x="140" y="150" text-anchor="end" class="row">ar14n24b</text>
        <text x="660" y="150" text-anchor="start" class="score">65.8% (S:100%)</text><rect x="150" y="180" width="500" height="30" fill="#eee" rx="5"/><rect x="150" y="180" width="75.0" height="30" fill="#ef4444" rx="5"/>
        <text x="140" y="200" text-anchor="end" class="row">marambashi</text>
        <text x="660" y="200" text-anchor="start" class="score">15.0% (S:0%)</text><rect x="150" y="230" width="500" height="30" fill="#eee" rx="5"/><rect x="150" y="230" width="75.0" height="30" fill="#ef4444" rx="5"/>
        <text x="140" y="250" text-anchor="end" class="row">hamedvpns</text>
        <text x="660" y="250" text-anchor="start" class="score">15.0% (S:0%)</text><rect x="150" y="280" width="500" height="30" fill="#eee" rx="5"/><rect x="150" y="280" width="470.5" height="30" fill="#22c55e" rx="5"/>
        <text x="140" y="300" text-anchor="end" class="row">meliproxyy</text>
        <text x="660" y="300" text-anchor="start" class="score">94.1% (S:100%)</text><rect x="150" y="330" width="500" height="30" fill="#eee" rx="5"/><rect x="150" y="330" width="75.0" height="30" fill="#ef4444" rx="5"/>
        <text x="140" y="350" text-anchor="end" class="row">wiki_tajrobe</text>
        <text x="660" y="350" text-anchor="start" class="score">15.0% (S:0%)</text><rect x="150" y="380" width="500" height="30" fill="#eee" rx="5"/><rect x="150" y="380" width="435.90000000000003" height="30" fill="#22c55e" rx="5"/>
        <text x="140" y="400" text-anchor="end" class="row">persianvpnhub</text>
        <text x="660" y="400" text-anchor="start" class="score">87.2% (S:100%)</text><rect x="150" y="430" width="500" height="30" fill="#eee" rx="5"/><rect x="150" y="430" width="75.0" height="30" fill="#ef4444" rx="5"/>
        <text x="140" y="450" text-anchor="end" class="row">sinavm</text>
        <text x="660" y="450" text-anchor="start" class="score">15.0% (S:0%)</text><rect x="150" y="480" width="500" height="30" fill="#eee" rx="5"/><rect x="150" y="480" width="75.0" height="30" fill="#ef4444" rx="5"/>
        <text x="140" y="500" text-anchor="end" class="row">tikvpnir</text>
        <text x="660" y="500" text-anchor="start" class="score">15.0% (S:0%)</text><rect x="150" y="530" width="500" height="30" fill="#eee" rx="5"/><rect x="150" y="530" width="75.0" height="30" fill="#ef4444" rx="5"/>
        <text x="140" y="550" text-anchor="end" class="row">v2ray_tz</text>
        <text x="660" y="550" text-anchor="start" class="score">15.0% (S:0%)</text><rect x="150" y="580" width="500" height="30" fill="#eee" rx="5"/><rect x="150" y="580" width="498.35" height="30" fill="#22c55e" rx="5"/>
        <text x="140" y="600" text-anchor="end" class="row">capoit</text>
        <text x="660" y="600" text-anchor="start" class="score">99.7% (S:100%)</text><rect x="150" y="630" width="500" height="30" fill="#eee" rx="5"/><rect x="150" y="630" width="75.0" height="30" fill="#ef4444" rx="5"/>
        <text x="140" y="650" text-anchor="end" class="row">free_netc</text>
        <text x="660" y="650" text-anchor="start" class="score">15.0% (S:0%)</text><rect x="150" y="680" width="500" height="30" fill="#eee" rx="5"/><rect x="150" y="680" width="423.15" height="30" fill="#22c55e" rx="5"/>
        <text x="140" y="700" text-anchor="end" class="row">pewezavpn</text>
        <text x="660" y="700" text-anchor="start" class="score">84.6% (S:100%)</text><rect x="150" y="730" width="500" height="30" fill="#eee" rx="5"/><rect x="150" y="730" width="408.45" height="30" fill="#22c55e" rx="5"/>
        <text x="140" y="750" text-anchor="end" class="row">configraygan</text>
        <text x="660" y="750" text-anchor="start" class="score">81.7% (S:100%)</text><rect x="150" y="780" width="500" height="30" fill="#eee" rx="5"/><rect x="150" y="780" width="75.0" height="30" fill="#ef4444" rx="5"/>
        <text x="140" y="800" text-anchor="end" class="row">NetAccount</text>
        <text x="660" y="800" text-anchor="start" class="score">15.0% (S:0%)</text><rect x="150" y="830" width="500" height="30" fill="#eee" rx="5"/><rect x="150" y="830" width="75.0" height="30" fill="#ef4444" rx="5"/>
        <text x="140" y="850" text-anchor="end" class="row">v2ray_alpha</text>
        <text x="660" y="850" text-anchor="start" class="score">15.0% (S:0%)</text><rect x="150" y="880" width="500" height="30" fill="#eee" rx="5"/><rect x="150" y="880" width="428.6" height="30" fill="#22c55e" rx="5"/>
        <text x="140" y="900" text-anchor="end" class="row">v2rayngvpn</text>
        <text x="660" y="900" text-anchor="start" class="score">85.7% (S:100%)</text><rect x="150" y="930" width="500" height="30" fill="#eee" rx="5"/><rect x="150" y="930" width="436.70000000000005" height="30" fill="#22c55e" rx="5"/>
        <text x="140" y="950" text-anchor="end" class="row">oneclickvpnkeys</text>
        <text x="660" y="950" text-anchor="start" class="score">87.3% (S:100%)</text><rect x="150" y="980" width="500" height="30" fill="#eee" rx="5"/><rect x="150" y="980" width="428.45" height="30" fill="#22c55e" rx="5"/>
        <text x="140" y="1000" text-anchor="end" class="row">proxy_kafee</text>
        <text x="660" y="1000" text-anchor="start" class="score">85.7% (S:100%)</text><rect x="150" y="1030" width="500" height="30" fill="#eee" rx="5"/><rect x="150" y="1030" width="425.34999999999997" height="30" fill="#22c55e" rx="5"/>
        <text x="140" y="1050" text-anchor="end" class="row">darkvpnpro</text>
        <text x="660" y="1050" text-anchor="start" class="score">85.1% (S:100%)</text><rect x="150" y="1080" width="500" height="30" fill="#eee" rx="5"/><rect x="150" y="1080" width="451.59999999999997" height="30" fill="#22c55e" rx="5"/>
        <text x="140" y="1100" text-anchor="end" class="row">parsashonam</text>
        <text x="660" y="1100" text-anchor="start" class="score">90.3% (S:100%)</text><rect x="150" y="1130" width="500" height="30" fill="#eee" rx="5"/><rect x="150" y="1130" width="75.0" height="30" fill="#ef4444" rx="5"/>
        <text x="140" y="1150" text-anchor="end" class="row">configwireguard</text>
        <text x="660" y="1150" text-anchor="start" class="score">15.0% (S:0%)</text><rect x="150" y="1180" width="500" height="30" fill="#eee" rx="5"/><rect x="150" y="1180" width="423.5" height="30" fill="#22c55e" rx="5"/>
        <text x="140" y="1200" text-anchor="end" class="row">lonup_m</text>
        <text x="660" y="1200" text-anchor="start" class="score">84.7% (S:100%)</text><rect x="150" y="1230" width="500" height="30" fill="#eee" rx="5"/><rect x="150" y="1230" width="448.7" height="30" fill="#22c55e" rx="5"/>
        <text x="140" y="1250" text-anchor="end" class="row">v2ray_free_conf</text>
        <text x="660" y="1250" text-anchor="start" class="score">89.7% (S:100%)</text><rect x="150" y="1280" width="500" height="30" fill="#eee" rx="5"/><rect x="150" y="1280" width="498.75" height="30" fill="#22c55e" rx="5"/>
        <text x="140" y="1300" text-anchor="end" class="row">privatevpns</text>
        <text x="660" y="1300" text-anchor="start" class="score">99.8% (S:100%)</text><rect x="150" y="1330" width="500" height="30" fill="#eee" rx="5"/><rect x="150" y="1330" width="498.84999999999997" height="30" fill="#22c55e" rx="5"/>
        <text x="140" y="1350" text-anchor="end" class="row">directvpn</text>
        <text x="660" y="1350" text-anchor="start" class="score">99.8% (S:100%)</text><rect x="150" y="1380" width="500" height="30" fill="#eee" rx="5"/><rect x="150" y="1380" width="423.54999999999995" height="30" fill="#22c55e" rx="5"/>
        <text x="140" y="1400" text-anchor="end" class="row">v2nodes</text>
        <text x="660" y="1400" text-anchor="start" class="score">84.7% (S:100%)</text><rect x="150" y="1430" width="500" height="30" fill="#eee" rx="5"/><rect x="150" y="1430" width="75.0" height="30" fill="#ef4444" rx="5"/>
        <text x="140" y="1450" text-anchor="end" class="row">yebekhe</text>
        <text x="660" y="1450" text-anchor="start" class="score">15.0% (S:0%)</text><rect x="150" y="1480" width="500" height="30" fill="#eee" rx="5"/><rect x="150" y="1480" width="75.0" height="30" fill="#ef4444" rx="5"/>
        <text x="140" y="1500" text-anchor="end" class="row">kevinzakarian</text>
        <text x="660" y="1500" text-anchor="start" class="score">15.0% (S:0%)</text><rect x="150" y="1530" width="500" height="30" fill="#eee" rx="5"/><rect x="150" y="1530" width="435.79999999999995" height="30" fill="#22c55e" rx="5"/>
        <text x="140" y="1550" text-anchor="end" class="row">surfboardv2ray</text>
        <text x="660" y="1550" text-anchor="start" class="score">87.2% (S:100%)</text><rect x="150" y="1580" width="500" height="30" fill="#eee" rx="5"/><rect x="150" y="1580" width="423.5" height="30" fill="#22c55e" rx="5"/>
        <text x="140" y="1600" text-anchor="end" class="row">v2ray_vpn_ir</text>
        <text x="660" y="1600" text-anchor="start" class="score">84.7% (S:100%)</text><rect x="150" y="1630" width="500" height="30" fill="#eee" rx="5"/><rect x="150" y="1630" width="75.0" height="30" fill="#ef4444" rx="5"/>
        <text x="140" y="1650" text-anchor="end" class="row">mbtiuniverse</text>
        <text x="660" y="1650" text-anchor="start" class="score">15.0% (S:0%)</text><rect x="150" y="1680" width="500" height="30" fill="#eee" rx="5"/><rect x="150" y="1680" width="422.9" height="30" fill="#22c55e" rx="5"/>
        <text x="140" y="1700" text-anchor="end" class="row">vpnclashfa</text>
        <text x="660" y="1700" text-anchor="start" class="score">84.6% (S:100%)</text><rect x="150" y="1730" width="500" height="30" fill="#eee" rx="5"/><rect x="150" y="1730" width="409.4" height="30" fill="#22c55e" rx="5"/>
        <text x="140" y="1750" text-anchor="end" class="row">configir98</text>
        <text x="660" y="1750" text-anchor="start" class="score">81.9% (S:100%)</text><rect x="150" y="1780" width="500" height="30" fill="#eee" rx="5"/><rect x="150" y="1780" width="390.75" height="30" fill="#22c55e" rx="5"/>
        <text x="140" y="1800" text-anchor="end" class="row">kurdconfing</text>
        <text x="660" y="1800" text-anchor="start" class="score">78.2% (S:100%)</text><rect x="150" y="1830" width="500" height="30" fill="#eee" rx="5"/><rect x="150" y="1830" width="75.0" height="30" fill="#ef4444" rx="5"/>
        <text x="140" y="1850" text-anchor="end" class="row">shadowproxy66</text>
        <text x="660" y="1850" text-anchor="start" class="score">15.0% (S:0%)</text><rect x="150" y="1880" width="500" height="30" fill="#eee" rx="5"/><rect x="150" y="1880" width="75.0" height="30" fill="#ef4444" rx="5"/>
        <text x="140" y="1900" text-anchor="end" class="row">v2rayalpha</text>
        <text x="660" y="1900" text-anchor="start" class="score">15.0% (S:0%)</text><rect x="150" y="1930" width="500" height="30" fill="#eee" rx="5"/><rect x="150" y="1930" width="75.0" height="30" fill="#ef4444" rx="5"/>
        <text x="140" y="1950" text-anchor="end" class="row">mahsa_net</text>
        <text x="660" y="1950" text-anchor="start" class="score">15.0% (S:0%)</text><rect x="150" y="1980" width="500" height="30" fill="#eee" rx="5"/><rect x="150" y="1980" width="75.0" height="30" fill="#ef4444" rx="5"/>
        <text x="140" y="2000" text-anchor="end" class="row">config_jo</text>
        <text x="660" y="2000" text-anchor="start" class="score">15.0% (S:0%)</text><rect x="150" y="2030" width="500" height="30" fill="#eee" rx="5"/><rect x="150" y="2030" width="75.0" height="30" fill="#ef4444" rx="5"/>
        <text x="140" y="2050" text-anchor="end" class="row">vless_vpn_ch</text>
        <text x="660" y="2050" text-anchor="start" class="score">15.0% (S:0%)</text><rect x="150" y="2080" width="500" height="30" fill="#eee" rx="5"/><rect x="150" y="2080" width="386.3" height="30" fill="#22c55e" rx="5"/>
        <text x="140" y="2100" text-anchor="end" class="row">v2rootconfigpilot</text>
        <text x="660" y="2100" text-anchor="start" class="score">77.3% (S:100%)</text><rect x="150" y="2130" width="500" height="30" fill="#eee" rx="5"/><rect x="150" y="2130" width="473.5" height="30" fill="#22c55e" rx="5"/>
        <text x="140" y="2150" text-anchor="end" class="row">vmess_iran</text>
        <text x="660" y="2150" text-anchor="start" class="score">94.7% (S:100%)</text><rect x="150" y="2180" width="500" height="30" fill="#eee" rx="5"/><rect x="150" y="2180" width="498.75" height="30" fill="#22c55e" rx="5"/>
        <text x="140" y="2200" text-anchor="end" class="row">vmessprotocol</text>
        <text x="660" y="2200" text-anchor="start" class="score">99.8% (S:100%)</text><rect x="150" y="2230" width="500" height="30" fill="#eee" rx="5"/><rect x="150" y="2230" width="75.0" height="30" fill="#ef4444" rx="5"/>
        <text x="140" y="2250" text-anchor="end" class="row">zibanabz</text>
        <text x="660" y="2250" text-anchor="start" class="score">15.0% (S:0%)</text><rect x="150" y="2280" width="500" height="30" fill="#eee" rx="5"/><rect x="150" y="2280" width="75.0" height="30" fill="#ef4444" rx="5"/>
        <text x="140" y="2300" text-anchor="end" class="row">v2ray_fspeed</text>
        <text x="660" y="2300" text-anchor="start" class="score">15.0% (S:0%)</text><rect x="150" y="2330" width="500" height="30" fill="#eee" rx="5"/><rect x="150" y="2330" width="75.0" height="30" fill="#ef4444" rx="5"/>
        <text x="140" y="2350" text-anchor="end" class="row">configv2rayng</text>
        <text x="660" y="2350" text-anchor="start" class="score">15.0% (S:0%)</text><rect x="150" y="2380" width="500" height="30" fill="#eee" rx="5"/><rect x="150" y="2380" width="75.0" height="30" fill="#ef4444" rx="5"/>
        <text x="140" y="2400" text-anchor="end" class="row">irvmess</text>
        <text x="660" y="2400" text-anchor="start" class="score">15.0% (S:0%)</text><rect x="150" y="2430" width="500" height="30" fill="#eee" rx="5"/><rect x="150" y="2430" width="75.0" height="30" fill="#ef4444" rx="5"/>
        <text x="140" y="2450" text-anchor="end" class="row">v2rayhup</text>
        <text x="660" y="2450" text-anchor="start" class="score">15.0% (S:0%)</text><rect x="150" y="2480" width="500" height="30" fill="#eee" rx="5"/><rect x="150" y="2480" width="75.0" height="30" fill="#ef4444" rx="5"/>
        <text x="140" y="2500" text-anchor="end" class="row">vpn_irane</text>
        <text x="660" y="2500" text-anchor="start" class="score">15.0% (S:0%)</text><rect x="150" y="2530" width="500" height="30" fill="#eee" rx="5"/><rect x="150" y="2530" width="75.0" height="30" fill="#ef4444" rx="5"/>
        <text x="140" y="2550" text-anchor="end" class="row">v2rayirani</text>
        <text x="660" y="2550" text-anchor="start" class="score">15.0% (S:0%)</text><rect x="150" y="2580" width="500" height="30" fill="#eee" rx="5"/><rect x="150" y="2580" width="423.54999999999995" height="30" fill="#22c55e" rx="5"/>
        <text x="140" y="2600" text-anchor="end" class="row">kingproxiy</text>
        <text x="660" y="2600" text-anchor="start" class="score">84.7% (S:100%)</text><rect x="150" y="2630" width="500" height="30" fill="#eee" rx="5"/><rect x="150" y="2630" width="373.65000000000003" height="30" fill="#22c55e" rx="5"/>
        <text x="140" y="2650" text-anchor="end" class="row">proxymtpvpn</text>
        <text x="660" y="2650" text-anchor="start" class="score">74.7% (S:100%)</text><rect x="150" y="2680" width="500" height="30" fill="#eee" rx="5"/><rect x="150" y="2680" width="75.0" height="30" fill="#ef4444" rx="5"/>
        <text x="140" y="2700" text-anchor="end" class="row">proxymtprotoir</text>
        <text x="660" y="2700" text-anchor="start" class="score">15.0% (S:0%)</text><rect x="150" y="2730" width="500" height="30" fill="#eee" rx="5"/><rect x="150" y="2730" width="377.5" height="30" fill="#22c55e" rx="5"/>
        <text x="140" y="2750" text-anchor="end" class="row">sub_1.txt</text>
        <text x="660" y="2750" text-anchor="start" class="score">75.5% (S:100%)</text><rect x="150" y="2780" width="500" height="30" fill="#eee" rx="5"/><rect x="150" y="2780" width="75.0" height="30" fill="#ef4444" rx="5"/>
        <text x="140" y="2800" text-anchor="end" class="row">sub_2.txt</text>
        <text x="660" y="2800" text-anchor="start" class="score">15.0% (S:0%)</text><rect x="150" y="2830" width="500" height="30" fill="#eee" rx="5"/><rect x="150" y="2830" width="75.0" height="30" fill="#ef4444" rx="5"/>
        <text x="140" y="2850" text-anchor="end" class="row">sub_3.txt</text>
        <text x="660" y="2850" text-anchor="start" class="score">15.0% (S:0%)</text><rect x="150" y="2880" width="500" height="30" fill="#eee" rx="5"/><rect x="150" y="2880" width="75.0" height="30" fill="#ef4444" rx="5"/>
        <text x="140" y="2900" text-anchor="end" class="row">sub_4.txt</text>
        <text x="660" y="2900" text-anchor="start" class="score">15.0% (S:0%)</text><rect x="150" y="2930" width="500" height="30" fill="#eee" rx="5"/><rect x="150" y="2930" width="370.85" height="30" fill="#22c55e" rx="5"/>
        <text x="140" y="2950" text-anchor="end" class="row">sub_1.txt</text>
        <text x="660" y="2950" text-anchor="start" class="score">74.2% (S:100%)</text><rect x="150" y="2980" width="500" height="30" fill="#eee" rx="5"/><rect x="150" y="2980" width="75.0" height="30" fill="#ef4444" rx="5"/>
        <text x="140" y="3000" text-anchor="end" class="row">sub_2.txt</text>
        <text x="660" y="3000" text-anchor="start" class="score">15.0% (S:0%)</text><rect x="150" y="3030" width="500" height="30" fill="#eee" rx="5"/><rect x="150" y="3030" width="75.0" height="30" fill="#ef4444" rx="5"/>
        <text x="140" y="3050" text-anchor="end" class="row">sub_3.txt</text>
        <text x="660" y="3050" text-anchor="start" class="score">15.0% (S:0%)</text><rect x="150" y="3080" width="500" height="30" fill="#eee" rx="5"/><rect x="150" y="3080" width="75.0" height="30" fill="#ef4444" rx="5"/>
        <text x="140" y="3100" text-anchor="end" class="row">sub_4.txt</text>
        <text x="660" y="3100" text-anchor="start" class="score">15.0% (S:0%)</text></svg>